<svg width="500" height="360" viewBox="0 0 500 360" fill="none" xmlns="http://www.w3.org/2000/svg">
  <!-- Window frame -->
  <rect width="500" height="360" rx="16" fill="#0F0F0F"/>
  <rect x="1" y="1" width="498" height="358" rx="15" stroke="rgba(255,255,255,0.08)" stroke-width="2"/>
  <!-- Title bar -->
  <rect x="0" y="0" width="500" height="40" rx="16" fill="#1A1A1A"/>
  <rect x="0" y="20" width="500" height="20" fill="#1A1A1A"/>
  <circle cx="20" cy="20" r="5" fill="#5A5A5A"/>
  <circle cx="36" cy="20" r="5" fill="#7E7E7E"/>
  <circle cx="52" cy="20" r="5" fill="#D6D6D6"/>
  <text x="250" y="24" text-anchor="middle" font-family="sans-serif" font-size="11" fill="rgba(255,255,255,0.5)">Meta Ads Manager</text>
  <!-- Sidebar -->
  <rect x="0" y="40" width="110" height="320" fill="#111111"/>
  <rect x="12" y="56" width="86" height="8" rx="4" fill="rgba(255,255,255,0.4)"/>
  <rect x="12" y="76" width="70" height="6" rx="3" fill="rgba(255,255,255,0.1)"/>
  <rect x="12" y="92" width="78" height="6" rx="3" fill="rgba(255,255,255,0.1)"/>
  <rect x="12" y="108" width="60" height="6" rx="3" fill="rgba(255,255,255,0.1)"/>
  <rect x="12" y="124" width="72" height="6" rx="3" fill="rgba(255,255,255,0.1)"/>
  <!-- Main content area -->
  <!-- KPI cards -->
  <rect x="124" y="54" width="110" height="60" rx="10" fill="#1A1A1A"/>
  <text x="134" y="72" font-family="sans-serif" font-size="9" fill="rgba(255,255,255,0.4)">Leads</text>
  <text x="134" y="96" font-family="sans-serif" font-size="20" fill="#FFFFFF" font-weight="700">1,247</text>
  <rect x="248" y="54" width="110" height="60" rx="10" fill="#1A1A1A"/>
  <text x="258" y="72" font-family="sans-serif" font-size="9" fill="rgba(255,255,255,0.4)">Costo/Lead</text>
  <text x="258" y="96" font-family="sans-serif" font-size="20" fill="#D6D6D6" font-weight="700">$38.50</text>
  <rect x="372" y="54" width="110" height="60" rx="10" fill="#1A1A1A"/>
  <text x="382" y="72" font-family="sans-serif" font-size="9" fill="rgba(255,255,255,0.4)">ROAS</text>
  <text x="382" y="96" font-family="sans-serif" font-size="20" fill="#C9C9C9" font-weight="700">4.2x</text>
  <!-- Chart area -->
  <rect x="124" y="128" width="358" height="140" rx="10" fill="#1A1A1A"/>
  <text x="138" y="150" font-family="sans-serif" font-size="10" fill="rgba(255,255,255,0.4)">Rendimiento de campañas</text>
  <!-- Chart bars -->
  <rect x="155" y="220" width="24" height="30" rx="4" fill="rgba(255,255,255,0.3)"/>
  <rect x="195" y="200" width="24" height="50" rx="4" fill="rgba(255,255,255,0.4)"/>
  <rect x="235" y="185" width="24" height="65" rx="4" fill="rgba(255,255,255,0.5)"/>
  <rect x="275" y="195" width="24" height="55" rx="4" fill="rgba(255,255,255,0.5)"/>
  <rect x="315" y="175" width="24" height="75" rx="4" fill="rgba(255,255,255,0.7)"/>
  <rect x="355" y="165" width="24" height="85" rx="4" fill="#9E9E9E"/>
  <rect x="395" y="170" width="24" height="80" rx="4" fill="#FFFFFF"/>
  <rect x="435" y="178" width="24" height="72" rx="4" fill="rgba(255,255,255,0.7)"/>
  <!-- Table rows -->
  <rect x="124" y="282" width="358" height="28" rx="6" fill="#1A1A1A"/>
  <rect x="134" y="290" width="60" height="6" rx="3" fill="rgba(255,255,255,0.15)"/>
  <rect x="220" y="290" width="40" height="6" rx="3" fill="rgba(255,255,255,0.4)"/>
  <rect x="290" y="290" width="50" height="6" rx="3" fill="rgba(255,255,255,0.4)"/>
  <rect x="380" y="290" width="30" height="6" rx="3" fill="rgba(255,255,255,0.1)"/>
  <rect x="124" y="316" width="358" height="28" rx="6" fill="rgba(37,34,68,0.5)"/>
  <rect x="134" y="324" width="50" height="6" rx="3" fill="rgba(255,255,255,0.15)"/>
  <rect x="220" y="324" width="35" height="6" rx="3" fill="rgba(255,255,255,0.4)"/>
  <rect x="290" y="324" width="45" height="6" rx="3" fill="rgba(255,255,255,0.4)"/>
  <rect x="380" y="324" width="25" height="6" rx="3" fill="rgba(255,255,255,0.1)"/>
</svg>
